<svg width="512" height="512" viewBox="0 0 512 512" fill="none" xmlns="http://www.w3.org/2000/svg">
<path d="M132.498 218.137H175.766C205.486 218.137 219.035 232.901 219.035 252.223C219.035 264.598 212.479 275.237 200.897 281.533L230.18 323.87H198.93L174.455 287.83H159.814V323.87H132.497V218.137H132.498ZM168.775 266.553C187.13 266.553 191.283 260.691 191.283 252.875C191.283 244.408 186.694 239.847 171.397 239.847H159.816V266.552H168.775V266.553Z" fill="white"/>
<path d="M356.263 295.212C356.263 295.212 367.845 304.113 384.453 304.113C393.412 304.113 399.095 301.508 399.095 295.645C399.095 280.448 349.707 280.013 349.707 248.316C349.707 231.164 364.349 215.531 391.883 215.531C406.961 215.531 423.132 220.308 423.132 220.308L419.199 243.322C419.199 243.322 405.431 237.895 391.666 237.895C381.832 237.895 377.024 240.5 377.024 245.71C377.024 260.692 425.974 260.041 425.974 293.475C425.974 313.449 407.836 326.476 384.016 326.476C364.131 326.476 348.397 317.574 348.397 317.574L356.263 295.212Z" fill="white"/>
<path d="M20.1015 218.137H95.4938V239.848H47.6362V259.823H85.2227V281.099H47.6362V302.158H97.6791V323.869H20.1015V218.137Z" fill="#FFCA00"/>
<path d="M451.667 227.558L468.569 187.04L491.261 196.351L470.268 234.318L451.667 227.558Z" fill="white"/>
<path d="M295.154 224.669H269.445V303.212H295.154V224.669Z" fill="white"/>
<path d="M344.284 206.403L331.43 184.284L275.874 216.153L288.728 238.272L344.284 206.403Z" fill="white"/>
<path d="M288.715 216.161L233.68 184.592L220.826 206.712L275.86 238.281L288.715 216.161Z" fill="white"/>
</svg>
